<?xml version="1.0" encoding="utf-8"?>
<!-- Generator: Adobe Illustrator 14.0.0, SVG Export Plug-In  -->
<!DOCTYPE svg PUBLIC "-//W3C//DTD SVG 1.1//EN" "http://www.w3.org/Graphics/SVG/1.1/DTD/svg11.dtd" [
	<!ENTITY ns_flows "http://ns.adobe.com/Flows/1.0/">
]>
<svg version="1.1"
	 xmlns="http://www.w3.org/2000/svg" xmlns:xlink="http://www.w3.org/1999/xlink" xmlns:a="http://ns.adobe.com/AdobeSVGViewerExtensions/3.0/"
	 x="0px" y="0px" width="576px" height="576px" viewBox="-27.007 -104.214 576 576"
	 enable-background="new -27.007 -104.214 576 576" xml:space="preserve">
<defs>
</defs>
<rect y="81.218" fill="#6A5342" width="523.976" height="292.397"/>
<g>
	<rect x="10" y="22.729" fill="#9A5044" width="503.976" height="96.959"/>
	<path fill="#6A5342" d="M503.976,32.729v76.959H20V32.729H503.976 M523.976,12.729H0v116.959h523.976V12.729L523.976,12.729z"/>
</g>
<path fill="#CEAD63" d="M358.774,110.328c-15.927,0-42.879-4.836-42.879-22.965c0-18.131,26.952-22.968,42.879-22.968
	c15.928,0,42.88,4.837,42.88,22.968C401.654,105.492,374.702,110.328,358.774,110.328L358.774,110.328z"/>
<path fill="#CD9B5A" d="M358.774,70.495c21.358,0,38.671,7.553,38.671,16.868c0,9.317-17.312,16.865-38.671,16.865
	c-21.357,0-38.67-7.548-38.67-16.865C320.104,78.048,337.417,70.495,358.774,70.495 M358.774,58.296
	c-7.862,0-47.088,1.402-47.088,29.067c0,27.664,39.226,29.065,47.088,29.065c7.863,0,47.089-1.402,47.089-29.065
	C405.863,59.698,366.637,58.296,358.774,58.296L358.774,58.296z"/>
<ellipse fill="#CEAD63" cx="358.774" cy="82.28" rx="47.088" ry="23.982"/>
<path fill="#CEAD63" d="M150.505,114.224c18.628,0,50.152-5.657,50.152-26.86c0-21.205-31.524-26.862-50.152-26.862
	c-18.627,0-50.151,5.657-50.151,26.862C100.354,108.567,131.877,114.224,150.505,114.224L150.505,114.224z"/>
<path fill="#CD9B5A" d="M150.505,67.636c24.979,0,45.229,8.831,45.229,19.728c0,10.896-20.25,19.726-45.229,19.726
	s-45.229-8.83-45.229-19.726C105.276,76.467,125.525,67.636,150.505,67.636 M150.505,53.368c-9.196,0-55.074,1.639-55.074,33.996
	c0,32.354,45.878,33.994,55.074,33.994c9.197,0,55.074-1.64,55.074-33.994C205.579,55.007,159.702,53.368,150.505,53.368
	L150.505,53.368z"/>
<path fill="#CEAD63" d="M95.431,81.419c0,15.489,24.658,28.048,55.074,28.048c30.417,0,55.074-12.559,55.074-28.048
	c0-15.493-24.657-28.051-55.074-28.051C120.088,53.368,95.431,65.926,95.431,81.419z"/>
<path fill="#CEAD63" d="M62.192,114.225c18.628,0,50.151-5.657,50.151-26.86c0-21.208-31.523-26.865-50.151-26.865
	s-50.151,5.657-50.151,26.865C12.041,108.568,43.564,114.225,62.192,114.225L62.192,114.225z"/>
<path fill="#CD9B5A" d="M62.192,67.634c24.979,0,45.229,8.834,45.229,19.731c0,10.896-20.249,19.726-45.229,19.726
	s-45.229-8.83-45.229-19.726C16.963,76.468,37.213,67.634,62.192,67.634 M62.192,53.366c-9.196,0-55.074,1.641-55.074,34
	c0,32.354,45.878,33.994,55.074,33.994c9.197,0,55.074-1.64,55.074-33.994C117.267,55.006,71.389,53.366,62.192,53.366
	L62.192,53.366z"/>
<path fill="#CEAD63" d="M7.118,81.42c0,15.489,24.658,28.048,55.074,28.048s55.074-12.559,55.074-28.048
	c0-15.495-24.658-28.055-55.074-28.055S7.118,65.925,7.118,81.42z"/>
<path fill="#CEAD63" d="M95.431,72.693c-18.628,0-50.152-5.659-50.152-26.86c0-21.207,31.524-26.864,50.152-26.864
	c18.627,0,50.151,5.657,50.151,26.864C145.582,67.035,114.058,72.693,95.431,72.693L95.431,72.693z"/>
<path fill="#CD9B5A" d="M95.431,26.104c24.979,0,45.229,8.833,45.229,19.73c0,10.896-20.249,19.726-45.229,19.726
	c-24.98,0-45.229-8.83-45.229-19.726C50.201,34.937,70.451,26.104,95.431,26.104 M95.431,11.835c-9.197,0-55.075,1.64-55.075,33.999
	c0,32.354,45.878,33.994,55.075,33.994c9.196,0,55.074-1.64,55.074-33.994C150.505,13.475,104.626,11.835,95.431,11.835
	L95.431,11.835z"/>
<path fill="#CEAD63" d="M150.505,39.888c0,15.49-24.658,28.049-55.074,28.049S40.356,55.378,40.356,39.888
	c0-15.494,24.658-28.053,55.075-28.053S150.505,24.394,150.505,39.888z"/>
<path fill="#CEAD63" d="M193.635,60.858c-18.627,0-50.152-5.658-50.152-26.86c0-21.207,31.524-26.864,50.152-26.864
	s50.151,5.657,50.151,26.864C243.786,55.2,212.263,60.858,193.635,60.858L193.635,60.858z"/>
<path fill="#CD9B5A" d="M193.635,14.268c24.979,0,45.228,8.833,45.228,19.73c0,10.896-20.249,19.726-45.228,19.726
	c-24.98,0-45.229-8.831-45.229-19.726C148.406,23.102,168.655,14.268,193.635,14.268 M193.635,0c-9.196,0-55.075,1.64-55.075,33.998
	c0,32.354,45.878,33.994,55.075,33.994s55.074-1.64,55.074-33.994C248.709,1.64,202.832,0,193.635,0L193.635,0z"/>
<ellipse fill="#CEAD63" cx="193.635" cy="28.053" rx="55.074" ry="28.049"/>
<path fill="#CEAD63" d="M299.629,105.149c18.629,0,50.153-5.658,50.153-26.86c0-21.205-31.524-26.863-50.153-26.863
	c-18.627,0-50.15,5.658-50.15,26.863C249.479,99.492,281.002,105.149,299.629,105.149L299.629,105.149z"/>
<path fill="#CD9B5A" d="M299.629,58.561c24.98,0,45.23,8.832,45.23,19.729c0,10.896-20.25,19.726-45.23,19.726
	c-24.979,0-45.227-8.83-45.227-19.726C254.402,67.393,274.651,58.561,299.629,58.561 M299.629,44.292
	c-9.195,0-55.073,1.64-55.073,33.997c0,32.354,45.878,33.995,55.073,33.995c9.198,0,55.076-1.641,55.076-33.995
	C354.706,45.933,308.828,44.292,299.629,44.292L299.629,44.292z"/>
<ellipse fill="#CEAD63" cx="299.631" cy="72.344" rx="55.075" ry="28.049"/>
<path fill="#CEAD63" d="M230.286,114.226c18.628,0,50.153-5.657,50.153-26.86c0-21.207-31.525-26.865-50.153-26.865
	c-18.627,0-50.151,5.658-50.151,26.865C180.135,108.568,211.659,114.226,230.286,114.226L230.286,114.226z"/>
<path fill="#CD9B5A" d="M230.286,67.635c24.979,0,45.229,8.835,45.229,19.731s-20.25,19.726-45.229,19.726
	s-45.229-8.83-45.229-19.726S205.307,67.635,230.286,67.635 M230.286,53.367c-9.196,0-55.074,1.64-55.074,33.999
	c0,32.354,45.878,33.994,55.074,33.994s55.075-1.64,55.075-33.994C285.361,55.007,239.482,53.367,230.286,53.367L230.286,53.367z"/>
<path fill="#CEAD63" d="M175.212,81.421c0,15.489,24.658,28.048,55.074,28.048s55.075-12.559,55.075-28.048
	c0-15.494-24.658-28.054-55.075-28.054S175.212,65.927,175.212,81.421z"/>
<path fill="#CEAD63" d="M399.235,106.324c-18.496-3.214-49.33-14.268-47.59-35.32c1.743-21.054,33.506-21.233,52.004-18.02
	c18.494,3.214,49.328,14.269,47.588,35.323C449.496,109.358,417.732,109.537,399.235,106.324L399.235,106.324z"/>
<path fill="#CD9B5A" d="M403.062,60.067c24.803,4.31,44.183,16.57,43.287,27.39c-0.896,10.819-21.725,16.093-46.527,11.783
	s-44.183-16.567-43.287-27.387C357.428,61.033,378.259,55.758,403.062,60.067 M404.234,45.9
	c-9.132-1.585-54.817-7.873-57.476,24.255c-2.656,32.125,42.759,41.665,51.892,43.251c9.131,1.585,54.816,7.872,57.475-24.252
	C458.782,57.029,413.365,47.487,404.234,45.9L404.234,45.9z"/>
<path fill="#CEAD63" d="M456.612,83.251c-1.272,15.381-26.786,23.597-56.986,18.352c-30.199-5.248-53.651-21.972-52.378-37.35
	c1.271-15.383,26.786-23.6,56.986-18.353C434.433,51.146,457.885,67.871,456.612,83.251z"/>
<path fill="#CEAD63" d="M468.605,110.908c-18.624-0.556-50.062-7.151-49.761-28.35c0.302-21.202,31.898-25.919,50.525-25.363
	c18.622,0.554,50.059,7.15,49.758,28.353C518.827,106.747,487.227,111.463,468.605,110.908L468.605,110.908z"/>
<path fill="#CD9B5A" d="M469.267,64.328c24.975,0.744,45.095,10.18,44.938,21.074c-0.154,10.893-20.523,19.118-45.499,18.373
	c-24.977-0.746-45.094-10.177-44.94-21.069C423.92,71.811,444.292,63.582,469.267,64.328 M469.468,50.062
	c-9.195-0.274-55.083-0.003-55.545,32.349c-0.459,32.348,45.386,35.356,54.58,35.629c9.195,0.275,55.086,0.004,55.544-32.344
	C524.509,53.344,478.662,50.335,469.468,50.062L469.468,50.062z"/>
<path fill="#CEAD63" d="M524.133,79.752c-0.221,15.488-25.052,27.31-55.461,26.399c-30.409-0.906-54.885-14.198-54.664-29.683
	c0.221-15.492,25.051-27.313,55.46-26.406C499.877,50.971,524.354,64.26,524.133,79.752z"/>
<path fill="#CEAD63" d="M279.742,72.25c-18.722,1.389-51.322-1.82-54.762-22.663c-3.44-20.845,27.325-28.756,46.047-30.145
	c18.719-1.39,51.318,1.819,54.758,22.663C329.223,62.95,298.46,70.861,279.742,72.25L279.742,72.25z"/>
<path fill="#CD9B5A" d="M272.183,26.455c25.104-1.863,46.886,5.309,48.654,16.019c1.769,10.71-17.149,20.901-42.253,22.763
	c-25.105,1.864-46.89-5.306-48.657-16.017C228.16,38.51,247.079,28.319,272.183,26.455 M269.869,12.429
	c-9.244,0.687-55.085,5.72-49.837,37.526c5.249,31.804,51.623,29.995,60.867,29.31c9.24-0.688,55.083-5.722,49.834-37.524
	C325.484,9.934,279.109,11.745,269.869,12.429L269.869,12.429z"/>
<path fill="#CEAD63" d="M329.769,35.895c2.513,15.226-20.23,29.41-50.799,31.68c-30.57,2.27-57.389-8.237-59.903-23.464
	c-2.512-15.228,20.232-29.413,50.802-31.682C300.435,10.162,327.255,20.667,329.769,35.895z"/>
<path fill="#CEAD63" d="M378.81,66.571c-18.495-3.213-49.331-14.268-47.59-35.32c1.742-21.056,33.508-21.235,52.001-18.022
	c18.496,3.212,49.333,14.268,47.592,35.324C429.07,69.604,397.305,69.784,378.81,66.571L378.81,66.571z"/>
<path fill="#CD9B5A" d="M382.636,20.312c24.803,4.309,44.183,16.573,43.288,27.393c-0.896,10.818-21.726,16.092-46.529,11.783
	c-24.802-4.308-44.182-16.568-43.287-27.388C337.004,21.28,357.833,16.002,382.636,20.312 M383.808,6.144
	c-9.129-1.585-54.818-7.871-57.475,24.258c-2.659,32.125,42.761,41.666,51.89,43.251c9.132,1.588,54.82,7.874,57.477-24.252
	C438.358,17.273,392.941,7.731,383.808,6.144L383.808,6.144z"/>
<path fill="#CEAD63" d="M436.189,43.5c-1.272,15.379-26.786,23.595-56.99,18.348c-30.199-5.246-53.649-21.97-52.378-37.349
	c1.273-15.384,26.788-23.601,56.987-18.355C414.009,11.391,437.46,28.114,436.189,43.5z"/>
<path fill="#CEAD63" d="M126.42,142.036l0.051,1.702C126.697,142.5,126.42,142.036,126.42,142.036z"/>
<path fill="#CEAD63" d="M126.367,143.738l0.052-1.702C126.419,142.036,126.141,142.5,126.367,143.738z"/>
<path fill="#CEAD63" d="M136.945,294.083c11.696-3.509,31.579,16.374,31.579,16.374l15.205-15.204l-19.455-12.866
	c-24.134,11.696-43.703-33.918-25.644-47.953c18.058-14.035,40.421-35.088,12.351-60.818
	c-19.133-17.539-23.591-25.835-24.492-29.343l-0.017-0.534c-0.014,0.075-0.034,0.161-0.052,0.243
	c-0.018-0.082-0.038-0.168-0.052-0.243l-0.016,0.534c-0.901,3.508-5.359,11.804-24.493,29.343
	c-28.07,25.73-5.708,46.783,12.351,60.818s-1.511,59.649-25.644,47.953L69.11,295.253l15.205,15.204
	c0,0,19.883-19.883,31.579-16.374c2.352,0.706,4.276,3.825,5.661,8.46l-1.49,49.185c-2.984,9.812-7.765,18.066-14.712,21.888h14.049
	h14.036h14.049c-6.947-3.821-11.728-12.076-14.712-21.888l-1.491-49.185C132.669,297.908,134.593,294.789,136.945,294.083z"/>
<path fill="#CEAD63" d="M0.327,260.528c0,0,26.661,8.543,16.328,33.21c-17.651,42.137,55.563,53.155,53.449,80.428L0,374.616
	L0.327,260.528z"/>
<ellipse fill="#6A5342" cx="125.409" cy="166.072" rx="6.145" ry="5.666"/>
<ellipse fill="#6A5342" cx="84.988" cy="295.738" rx="6.145" ry="5.666"/>
<ellipse fill="#6A5342" cx="169.068" cy="295.738" rx="6.145" ry="5.666"/>
<ellipse fill="#6A5342" cx="126.56" cy="278.738" rx="6.145" ry="5.666"/>
<ellipse fill="#6A5342" cx="100.354" cy="196.738" rx="6.145" ry="5.666"/>
<ellipse fill="#6A5342" cx="152.646" cy="196.738" rx="6.145" ry="5.666"/>
<ellipse fill="#6A5342" cx="10.039" cy="364.738" rx="6.145" ry="5.666"/>
<ellipse fill="#6A5342" cx="9.321" cy="278.738" rx="6.145" ry="5.666"/>
<ellipse fill="#6A5342" cx="55.987" cy="364.738" rx="6.145" ry="5.666"/>
<ellipse fill="#6A5342" cx="126.56" cy="227.417" rx="6.145" ry="5.666"/>
<ellipse fill="#6A5342" cx="126.561" cy="360.405" rx="6.145" ry="5.666"/>
<path fill="#CEAD63" d="M397.329,142.387l-0.052,1.702C397.051,142.851,397.329,142.387,397.329,142.387z"/>
<path fill="#CEAD63" d="M397.381,144.089l-0.053-1.702C397.329,142.387,397.607,142.851,397.381,144.089z"/>
<path fill="#CEAD63" d="M386.803,294.434c-11.696-3.509-31.579,16.374-31.579,16.374l-15.204-15.204l19.455-12.866
	c24.133,11.696,43.702-33.918,25.644-47.953c-18.058-14.035-40.421-35.088-12.351-60.818c19.133-17.539,23.591-25.835,24.492-29.343
	l0.017-0.534c0.014,0.075,0.034,0.161,0.052,0.243c0.018-0.082,0.038-0.168,0.053-0.243l0.016,0.534
	c0.901,3.508,5.359,11.804,24.492,29.343c28.07,25.73,5.708,46.783-12.351,60.818s1.511,59.649,25.644,47.953l19.456,12.866
	l-15.205,15.204c0,0-19.883-19.883-31.579-16.374c-2.352,0.706-4.275,3.825-5.66,8.46l1.49,49.185
	c2.983,9.812,7.765,18.066,14.711,21.888h-14.049h-14.035h-14.049c6.946-3.821,11.728-12.076,14.711-21.888l1.491-49.185
	C391.079,298.259,389.155,295.14,386.803,294.434z"/>
<path fill="#CEAD63" d="M523.42,260.879c0,0-26.66,8.543-16.327,33.21c17.651,42.137-55.563,53.155-53.448,80.428l70.104,0.45
	L523.42,260.879z"/>
<ellipse fill="#6A5342" cx="398.338" cy="166.423" rx="6.145" ry="5.666"/>
<ellipse fill="#6A5342" cx="438.76" cy="296.089" rx="6.145" ry="5.666"/>
<ellipse fill="#6A5342" cx="354.68" cy="296.089" rx="6.145" ry="5.666"/>
<ellipse fill="#6A5342" cx="397.188" cy="279.089" rx="6.145" ry="5.666"/>
<ellipse fill="#6A5342" cx="423.395" cy="197.089" rx="6.145" ry="5.666"/>
<ellipse fill="#6A5342" cx="371.102" cy="197.089" rx="6.145" ry="5.666"/>
<ellipse fill="#6A5342" cx="513.709" cy="365.089" rx="6.145" ry="5.666"/>
<ellipse fill="#6A5342" cx="514.426" cy="279.089" rx="6.145" ry="5.666"/>
<ellipse fill="#6A5342" cx="467.76" cy="365.089" rx="6.145" ry="5.666"/>
<ellipse fill="#6A5342" cx="397.188" cy="227.768" rx="6.145" ry="5.666"/>
<ellipse fill="#6A5342" cx="397.188" cy="360.756" rx="6.145" ry="5.666"/>
</svg>
