<svg height="24" width="24" xmlns="http://www.w3.org/2000/svg"><path fill="none" d="M0 0h24v24H0z"/><circle fill="#FFF" cx="12" cy="12" r="12"/><path fill="#EFDD92" d="M11.5 11.6c0-1.6.3-3.1.7-4.6V2.5c-2.1 3.4-2.2 9-2.2 11l1.5-1.9m1.2-5.2c2.3 0 4.3 2.8 4.4 4.8l4.7.7c-.1-5.1-4-9.3-9.1-9.8v4.3zm3.8 5.2c-1.5.6-3.2.7-4.8.4l-1.6 2c1.1.2 2.2.4 3.4.4 2.7 0 5.3-.7 7.6-2l-4.6-.8"/><path fill="#A0D3DF" d="M13.6 14.9c-1.3 0-2.7-.1-3.9-.5l-.2-.1v-.2c0-.3-.4-7.9 2.4-12.2-5.6.6-9.7 5.5-9.2 11C3.1 17.8 7 21.7 12 22c5.3 0 9.6-4.2 9.8-9.4-2.5 1.5-5.3 2.4-8.2 2.3"/><path fill="#FDB515" d="M12.7 6.4c2.3.1 4.3 2.8 4.4 4.8l1.8.3c-.2-3.4-2.8-6.2-6.2-6.5v1.4zm3.8 5.2c-1.5.6-3.2.7-4.8.4l-.6.7c2.5.6 5 .3 7.3-.8l-1.9-.3m-4.3-6.2c-.8 2.2-1.2 4.5-1.2 6.8l.5-.6c0-1.6.3-3.1.7-4.6V5.4"/><path fill="#295A2C" d="M2.6 11.8c.8 0 2-1.7 2-2.5s.4-.9.8-1 1.3.6 1.9.3c.6-.3 1.1-.9 1.4-1.5.2-.7.2-1.5-.1-2.1-.2-.7-.2-1.5 0-2.2-3.6 1.6-5.9 5.1-6 9m17.9 1.5c0 .6-.4 3.8-1.7 3.5s-3.1-1.5-4.1-.8c-1.3.9 0 1.6-.6 2.3s-.2 1.7-.3 2.3c-.1.5-.3.9-.5 1.3 4.7-.7 8.2-4.6 8.5-9.3-.4.2-.9.5-1.3.7"/></svg>