<svg height="24" width="24" id="Layer_1" data-name="Layer 1" xmlns="http://www.w3.org/2000/svg"><defs><style>.cls-2{fill:#fff}</style></defs><path d="M0 0h24v24H0z" fill="none"/><circle class="cls-2" cx="12" cy="12" r="12"/><circle cx="12" cy="12" r="10" fill="#e88524"/><path class="cls-2" d="M15.77 10.48h-4.5l-6 1.14s-.15 0-.15.28v.46a.23.23 0 0 0 .23.26h.19v2.72a1.11 1.11 0 0 0 1 1.17h3.29a.92.92 0 0 0 .47-.14l4.23-1.53c.91-.4.93-.77.93-1.35v-2.17a2.41 2.41 0 0 1 .3 0 .17.17 0 0 0 .11-.16v-.54c0-.09-.1-.12-.11-.12zm-6.43 5.19H6.88a.58.58 0 0 1-.5-.64v-2.38h3.46V15a.59.59 0 0 1-.5.65zm5.26-2.44a.84.84 0 0 1-.61.86l-3.31 1.13a1.13 1.13 0 0 0 0-.2v-2.37l3.89-1.06v1.64zm4.16-5.15l-6.33-.62-4.65.68a.17.17 0 0 0-.1.14V9a.15.15 0 0 0 .11.16h.33V10L9 9.89v-.65l5.24.36H15c1.12-.11 2-.22 2.66-.3v2c0 .36-.22.42-.5.44l-.81.15v.73l1.15-.15a1.24 1.24 0 0 0 1-1.28v-2h.18a.26.26 0 0 0 .24-.28v-.52c0-.15-.14-.28-.14-.28z"/></svg>