<svg height="24" width="24" data-name="Layer 1" xmlns="http://www.w3.org/2000/svg" viewBox="0 0 24 24"><path fill="none" d="M0 0h24v24H0z"/><circle cx="12" cy="12" r="12" fill="#fff"/><circle cx="12.12" cy="12.12" r="9.12" fill="#684e2f" stroke="#684e2f" stroke-width="2"/><path d="M12.38 14.52L12.12 3A9.12 9.12 0 1 1 3 12.12 9.12 9.12 0 0 1 12.12 3l.26 11.52h-6c.15 3 2.75 4.85 5.74 4.85s5.59-1.89 5.74-4.85zM8.84 9.46a1.29 1.29 0 0 1 1.29-1.28 1.3 1.3 0 0 1 .49.1c-.27-.82-.8-1.39-1.43-1.39-.9-.01-1.62 1.11-1.62 2.58s.72 2.59 1.62 2.59c.63 0 1.17-.58 1.44-1.42a1.31 1.31 0 0 1-.5.1 1.29 1.29 0 0 1-1.29-1.28zM16 10.75a1.28 1.28 0 1 1 0-2.57 1.3 1.3 0 0 1 .49.1c-.27-.82-.8-1.39-1.43-1.39-.89 0-1.62 1.16-1.62 2.59s.72 2.59 1.62 2.59c.63 0 1.17-.58 1.44-1.42a1.31 1.31 0 0 1-.5.1zm-3.9 7.86c-1.48 0-2.67 0-2.67-.62s1.2-1.16 2.67-1.16 2.67.52 2.67 1.16-1.18.62-2.65.62z" fill="#f7e712"/></svg>