<svg height="24" width="24" id="Layer_1" xmlns="http://www.w3.org/2000/svg"><defs><style>.cls-2{fill:#fff}</style></defs><path d="M0 0h24v24H0z" fill="none"/><circle class="cls-2" cx="12" cy="12" r="12"/><circle cx="12" cy="12" r="10" fill="#01884e"/><path class="cls-2" d="M18.71 8.22A.22.22 0 0 0 18.5 8h-5.76L5.18 9.85s-.18 0-.18.37v1a.29.29 0 0 0 .31.33h.12v3.35a1.41 1.41 0 0 0 1.28 1.51H11a1.14 1.14 0 0 0 .59-.17l5.55-2.3c1.14-.51 1.18-.93 1.16-1.75V9.31a2.87 2.87 0 0 1 .3-.06.21.21 0 0 0 .12-.25v-.83zm-7.92 7.27H6.92a.75.75 0 0 1-.63-.83v-3.13h5.13v3.13a.75.75 0 0 1-.63.83zM17.43 12c0 .66-.06.79-.77 1.11L12.26 15a1.9 1.9 0 0 0 0-.3v-3.17s.33-.19.43-.22c.92-.32 3.39-1.21 4.71-1.68v2.38z"/></svg>