<svg height="24" width="24" id="Layer_1" data-name="Layer 1" xmlns="http://www.w3.org/2000/svg"><defs><style>.cls-2{fill:#fff}</style></defs><path d="M0 0h24v24H0z" fill="none"/><circle class="cls-2" cx="12" cy="12" r="12"/><circle cx="12" cy="12" r="10" fill="#089cbc"/><path class="cls-2" d="M12 9.44a1.78 1.78 0 1 0 1.81 1.78A1.79 1.79 0 0 0 12 9.44zm2 6.31a5 5 0 1 0-7-4.55 5 5 0 0 0 3 4.55c-1.23.45-2.2 1.25-2.2 1.79a.2.2 0 0 0 .22.22h8a.21.21 0 0 0 .22-.22c0-.57-1-1.34-2.21-1.79zm-2-2a2.59 2.59 0 1 1 2.63-2.59A2.61 2.61 0 0 1 12 13.79z"/></svg>